 <?xml version="1.0" encoding="UTF-8"?>
<svg width="24" height="24" viewBox="0 0 24 24" fill="none" xmlns="http://www.w3.org/2000/svg">
  <path d="M12 2C6.48 2 2 6.48 2 12C2 17.52 6.48 22 12 22C17.52 22 22 17.52 22 12C22 6.48 17.52 2 12 2ZM16.5 13H13V16.5C13 17.05 12.55 17.5 12 17.5C11.45 17.5 11 17.05 11 16.5V13H7.5C6.95 13 6.5 12.55 6.5 12C6.5 11.45 6.95 11 7.5 11H11V7.5C11 6.95 11.45 6.5 12 6.5C12.55 6.5 13 6.95 13 7.5V11H16.5C17.05 11 17.5 11.45 17.5 12C17.5 12.55 17.05 13 16.5 13Z" fill="#2563EB"/>
</svg>